<svg width="85" height="107" viewBox="0 0 85 107" fill="none" xmlns="http://www.w3.org/2000/svg">
<g clip-path="url(#clip0_169_152)">
<path d="M27.5892 91.1366C22.7554 86.7179 21.3442 77.4336 23.3582 70.7073C26.8502 74.9481 31.6887 76.2915 36.7004 77.0498C44.4373 78.22 52.0357 77.7823 59.223 74.246C60.0452 73.8411 60.8051 73.3028 61.7035 72.7575C62.3779 74.7141 62.5534 76.6893 62.3178 78.6997C61.7451 83.5958 59.3085 87.3779 55.4331 90.2449C53.8834 91.3917 52.2436 92.4168 50.6431 93.498C45.7261 96.8214 44.3958 100.718 46.2434 106.386C46.2873 106.525 46.3266 106.663 46.4259 107C43.9154 105.876 42.0816 104.24 40.6843 102.089C39.2085 99.8194 38.5064 97.3082 38.4695 94.591C38.451 93.2687 38.451 91.9346 38.2732 90.631C37.839 87.4528 36.347 86.0298 33.5363 85.9479C30.6517 85.8637 28.3699 87.647 27.7648 90.4555C27.7186 90.6708 27.6516 90.8838 27.5846 91.1342L27.5892 91.1366Z" fill="#17191E"/>
<path d="M0 69.5866C0 69.5866 14.3139 62.6137 28.6678 62.6137L39.4901 29.1204C39.8953 27.5007 41.0783 26.3999 42.4139 26.3999C43.7495 26.3999 44.9325 27.5007 45.3377 29.1204L56.1601 62.6137C73.1601 62.6137 84.8278 69.5866 84.8278 69.5866C84.8278 69.5866 60.5145 3.35233 60.467 3.21944C59.7692 1.2612 58.5911 0 57.0029 0H27.8274C26.2392 0 25.1087 1.2612 24.3634 3.21944C24.3108 3.34983 0 69.5866 0 69.5866Z" fill="#17191E"/>
</g>
<defs>
<clipPath id="clip0_169_152">
<rect width="85" height="107" fill="white"/>
</clipPath>
</defs>
</svg>
