<svg width="101" height="101" viewBox="0 0 101 101" fill="none" xmlns="http://www.w3.org/2000/svg">
<path d="M50.502 8.41675C27.1942 8.41675 8.4187 27.1922 8.4187 50.5001C8.4187 73.8079 27.1942 92.5834 50.502 92.5834C73.8078 92.5834 92.5854 73.8079 92.5854 50.5001C92.5854 27.1922 73.8078 8.41675 50.502 8.41675Z" fill="url(#paint0_linear_169_155)"/>
<path opacity="0.05" d="M44.6588 33.5363C56.3454 33.5363 68.6463 35.9982 77.8731 41.2249C79.1019 41.8414 80.0236 43.0703 80.0236 44.9156C79.7185 47.0682 78.1782 48.6084 76.0277 48.6084C75.1061 48.6084 74.7968 48.3012 73.8752 47.9961C66.4938 43.6889 55.4238 41.227 44.6588 41.227C39.1228 41.227 33.5867 41.8435 28.6672 43.0724C28.0506 43.0724 27.4362 43.3796 26.5146 43.3796C26.3568 43.4027 26.2011 43.4133 26.0496 43.4133C24.1453 43.4133 22.8239 41.6857 22.8239 39.6889C22.8239 37.5363 24.0548 36.3075 25.5909 35.9982C31.4341 34.1528 37.5846 33.5363 44.6588 33.5363ZM43.7351 47.0682C54.1928 47.0682 64.3412 49.5301 72.337 54.4475C73.5659 55.0598 74.1824 56.2929 74.1824 57.5217C74.1824 59.3692 72.9515 60.9052 71.1061 60.9052C70.1845 60.9052 69.5701 60.6022 68.9535 60.2929C62.498 56.295 53.5763 53.831 43.43 53.831C38.5084 53.831 33.896 54.4475 30.5125 55.3733C29.5888 55.6763 29.2816 55.6763 28.6672 55.6763C26.8218 55.6763 25.5909 54.1403 25.5909 52.6022C25.5909 50.7568 26.5146 49.8331 28.0506 49.2208C32.663 47.9919 37.2774 47.0682 43.7351 47.0682ZM44.6567 60.2929C53.2691 60.2929 61.2649 62.4412 68.0298 66.4455C68.9514 67.0578 69.568 67.6743 69.568 69.2103C69.2607 70.4434 68.0298 71.3629 66.801 71.3629C66.1866 71.3629 65.57 71.0578 64.9556 70.7485C59.1124 67.3671 52.0381 65.5217 44.3516 65.5217C40.0444 65.5217 35.7393 66.134 31.7414 67.0578C31.1269 67.0578 30.2032 67.365 29.896 67.365C28.3579 67.365 27.4362 66.1319 27.4362 64.9031C27.4362 63.3671 28.3579 62.4412 29.5888 62.1382C34.5083 60.9052 39.43 60.2929 44.6567 60.2929ZM44.6588 31.4321C36.6861 31.4321 30.6325 32.2128 25.0543 33.9613C22.4157 34.5484 20.7197 36.783 20.7197 39.6889C20.7197 42.9566 23.0596 45.5174 26.0496 45.5174C26.2495 45.5174 26.4536 45.5069 26.6619 45.4817C27.3331 45.4669 27.8697 45.3449 28.2695 45.2565C28.4126 45.2249 28.543 45.1829 28.6756 45.1765H28.9344L29.1785 45.1134C33.8476 43.9477 39.2006 43.3312 44.6609 43.3312C55.3354 43.3312 65.8604 45.7552 72.8168 49.8141L73.0062 49.9256L73.2145 49.9951C73.4438 50.0708 73.6248 50.1487 73.7889 50.216C74.3171 50.437 74.9736 50.7126 76.0299 50.7126C79.1503 50.7126 81.6501 48.4506 82.1088 45.2102L82.1298 45.0629V44.9135C82.1298 42.4495 80.9431 40.4316 78.8705 39.369C69.9383 34.3254 57.4732 31.4321 44.6588 31.4321ZM43.7351 44.964C36.8103 44.964 31.8445 46.0329 27.5099 47.1881L27.3878 47.2197L27.2721 47.266C24.7597 48.2676 23.4867 50.0624 23.4867 52.6022C23.4867 55.4575 25.8097 57.7805 28.6672 57.7805C29.4478 57.7805 29.9844 57.7616 31.169 57.3723C34.4768 56.4696 38.9839 55.9352 43.43 55.9352C52.7746 55.9352 61.4459 58.1172 67.8446 62.0814L67.9246 62.1319L68.0088 62.174C68.7116 62.5275 69.6753 63.0094 71.104 63.0094C74.0583 63.0094 76.2845 60.6506 76.2845 57.5217C76.2845 55.4259 75.1693 53.5532 73.366 52.6106C65.3133 47.6784 54.7925 44.964 43.7351 44.964ZM44.6567 58.1887C39.2974 58.1887 34.2011 58.8137 29.0775 60.0972C26.7713 60.6653 25.3321 62.5065 25.3321 64.9031C25.3321 67.4639 27.3373 69.4692 29.896 69.4692C30.2579 69.4692 30.5988 69.3913 30.9944 69.3029C31.2069 69.2545 31.6004 69.1661 31.7456 69.1619L31.9581 69.1556L32.2148 69.1072C36.4715 68.1246 40.5536 67.6259 44.3516 67.6259C51.5521 67.6259 58.3128 69.3345 63.9014 72.5707L63.954 72.6023L64.0087 72.6296C64.7115 72.9831 65.6752 73.4692 66.801 73.4692C69.0104 73.4692 71.0766 71.8574 71.609 69.7216L71.6721 69.4713V69.2124C71.6721 66.6832 70.4201 65.5091 69.1934 64.6948L69.1471 64.6653L69.1008 64.638C61.9782 60.417 53.5237 58.1887 44.6567 58.1887Z" fill="black"/>
<path opacity="0.07" d="M44.6587 33.5362C56.3453 33.5362 68.6462 35.9981 77.873 41.2248C79.1018 41.8414 80.0235 43.0702 80.0235 44.9156C79.7184 47.0681 78.1781 48.6084 76.0277 48.6084C75.106 48.6084 74.7967 48.3012 73.8751 47.996C66.4937 43.6888 55.4237 41.2269 44.6587 41.2269C39.1227 41.2269 33.5866 41.8435 28.6671 43.0723C28.0506 43.0723 27.4361 43.3795 26.5145 43.3795C26.3567 43.4027 26.201 43.4132 26.0495 43.4132C24.1452 43.4132 22.8238 41.6857 22.8238 39.6888C22.8238 37.5362 24.0547 36.3074 25.5908 35.9981C31.4341 34.1527 37.5845 33.5362 44.6587 33.5362ZM43.735 47.0681C54.1927 47.0681 64.3411 49.53 72.3369 54.4474C73.5658 55.0597 74.1823 56.2928 74.1823 57.5216C74.1823 59.3691 72.9514 60.9051 71.106 60.9051C70.1844 60.9051 69.57 60.6021 68.9535 60.2928C62.4979 56.2949 53.5762 53.8309 43.4299 53.8309C38.5083 53.8309 33.8959 54.4474 30.5124 55.3733C29.5887 55.6763 29.2815 55.6763 28.6671 55.6763C26.8217 55.6763 25.5908 54.1402 25.5908 52.6021C25.5908 50.7567 26.5145 49.833 28.0506 49.2207C32.6629 47.9918 37.2773 47.0681 43.735 47.0681ZM44.6566 60.2928C53.269 60.2928 61.2648 62.4412 68.0297 66.4454C68.9514 67.0577 69.5679 67.6742 69.5679 69.2103C69.2607 70.4433 68.0297 71.3628 66.8009 71.3628C66.1865 71.3628 65.57 71.0577 64.9555 70.7484C59.1123 67.367 52.0381 65.5217 44.3515 65.5217C40.0443 65.5217 35.7392 66.134 31.7413 67.0577C31.1269 67.0577 30.2031 67.3649 29.8959 67.3649C28.3578 67.3649 27.4361 66.1319 27.4361 64.903C27.4361 63.367 28.3578 62.4412 29.5887 62.1382C34.5082 60.9051 39.4299 60.2928 44.6566 60.2928ZM44.6587 32.4841C36.7744 32.4841 30.8091 33.2543 25.3257 34.9797C23.1331 35.4468 21.7717 37.248 21.7717 39.6888C21.7717 42.3674 23.6507 44.4653 26.0495 44.4653C26.2262 44.4653 26.4051 44.4547 26.5903 44.4316C27.1794 44.4232 27.655 44.3159 28.04 44.2296C28.2904 44.1728 28.5072 44.1244 28.6692 44.1244H28.7975L28.9238 44.0928C33.675 42.9061 39.1164 42.279 44.6609 42.279C55.5141 42.279 66.237 44.7556 73.347 48.9051L73.4416 48.9598L73.5468 48.9934C73.8057 49.0797 74.0119 49.166 74.197 49.2438C74.6831 49.4479 75.186 49.6583 76.0298 49.6583C78.6537 49.6583 80.6779 47.8109 81.0671 45.0607L81.0777 44.9871V44.9134C81.0777 42.8408 80.0824 41.1533 78.3465 40.2822C69.6121 35.3374 57.3174 32.4841 44.6587 32.4841ZM43.735 46.016C37.3089 46.016 32.7092 46.8914 27.7791 48.2044L27.7181 48.2212L27.6592 48.2443C26.3188 48.7788 24.5366 49.8119 24.5366 52.6021C24.5366 54.5863 26.1147 56.7283 28.665 56.7283C29.3804 56.7283 29.8033 56.7115 30.8386 56.3727C34.2831 55.4322 38.8912 54.883 43.4278 54.883C52.966 54.883 61.833 57.1218 68.398 61.1871C69.1239 61.5553 69.9235 61.9572 71.1039 61.9572C73.4585 61.9572 75.2323 60.0508 75.2323 57.5216C75.2323 55.7899 74.3022 54.2517 72.8041 53.5048C64.9871 48.6925 54.6346 46.016 43.735 46.016ZM44.6566 59.2407C39.3836 59.2407 34.3715 59.8551 29.332 61.1176C27.514 61.5658 26.3841 63.0156 26.3841 64.903C26.3841 66.6305 27.6971 68.417 29.8959 68.417C30.14 68.417 30.4135 68.356 30.7607 68.276C31.0721 68.2066 31.4993 68.1098 31.7413 68.1098H31.8612L31.979 68.0824C36.3136 67.0808 40.4757 66.5737 44.3515 66.5737C51.7372 66.5737 58.6788 68.3328 64.4295 71.6595C65.126 72.013 65.9277 72.4149 66.8009 72.4149C68.541 72.4149 70.1697 71.1461 70.5884 69.4649L70.62 69.3386V69.2103C70.62 67.0808 69.5826 66.2139 68.6126 65.57C61.6036 61.4185 53.3363 59.2407 44.6566 59.2407Z" fill="black"/>
<path d="M66.8011 71.3627C66.1866 71.3627 65.5701 71.0576 64.9557 70.7483C59.1124 67.3669 52.0382 65.5216 44.3517 65.5216C40.0445 65.5216 35.7393 66.1339 31.7414 67.0576C31.127 67.0576 30.2033 67.3648 29.8961 67.3648C28.3579 67.3648 27.4363 66.1318 27.4363 64.9029C27.4363 63.3669 28.3579 62.4411 29.5889 62.1381C34.5084 60.905 39.4301 60.2927 44.6568 60.2927C53.2692 60.2927 61.265 62.4411 68.0299 66.4453C68.9515 67.0576 69.568 67.6741 69.568 69.2102C69.2608 70.4432 68.0299 71.3627 66.8011 71.3627ZM71.1062 60.905C70.1846 60.905 69.5701 60.602 68.9536 60.2927C62.498 56.2948 53.5764 53.8308 43.4301 53.8308C38.5084 53.8308 33.8961 54.4473 30.5126 55.3732C29.5889 55.6762 29.2817 55.6762 28.6672 55.6762C26.8219 55.6762 25.591 54.1401 25.591 52.602C25.591 50.7566 26.5147 49.8329 28.0507 49.2206C32.6631 47.9918 37.2775 47.068 43.7352 47.068C54.1929 47.068 64.3413 49.5299 72.3371 54.4473C73.5659 55.0597 74.1825 56.2927 74.1825 57.5215C74.1825 59.369 72.9515 60.905 71.1062 60.905ZM76.0278 48.6083C75.1062 48.6083 74.7969 48.3011 73.8753 47.996C66.4938 43.6887 55.4238 41.2269 44.6589 41.2269C39.1229 41.2269 33.5868 41.8434 28.6672 43.0722C28.0507 43.0722 27.4363 43.3794 26.5147 43.3794C24.3621 43.6866 22.824 41.8434 22.824 39.6887C22.824 37.5362 24.0549 36.3073 25.591 35.998C31.4342 34.1527 37.5847 33.5361 44.6589 33.5361C56.3455 33.5361 68.6464 35.998 77.8732 41.2248C79.102 41.8413 80.0236 43.0701 80.0236 44.9155C79.7185 47.068 78.1783 48.6083 76.0278 48.6083Z" fill="white"/>
<defs>
<linearGradient id="paint0_linear_169_155" x1="50.502" y1="-10.0263" x2="50.502" y2="118.486" gradientUnits="userSpaceOnUse">
<stop stop-color="#4CAF50"/>
<stop offset="0.489" stop-color="#4AAF50"/>
<stop offset="0.665" stop-color="#43AD50"/>
<stop offset="0.79" stop-color="#38AA50"/>
<stop offset="0.892" stop-color="#27A550"/>
<stop offset="0.978" stop-color="#11A050"/>
<stop offset="1" stop-color="#0A9E50"/>
</linearGradient>
</defs>
</svg>
